<svg id="visual" viewBox="0 0 900 600" width="900" height="600" xmlns="http://www.w3.org/2000/svg" xmlns:xlink="http://www.w3.org/1999/xlink" version="1.1"><rect x="0" y="0" width="900" height="600" fill="#001220"></rect><defs><linearGradient id="grad1_0" x1="33.3%" y1="0%" x2="100%" y2="100%"><stop offset="20%" stop-color="#00e5ff" stop-opacity="1"></stop><stop offset="80%" stop-color="#00e5ff" stop-opacity="1"></stop></linearGradient></defs><defs><linearGradient id="grad1_1" x1="33.3%" y1="0%" x2="100%" y2="100%"><stop offset="20%" stop-color="#00e5ff" stop-opacity="1"></stop><stop offset="80%" stop-color="#02b5d4" stop-opacity="1"></stop></linearGradient></defs><defs><linearGradient id="grad1_2" x1="33.3%" y1="0%" x2="100%" y2="100%"><stop offset="20%" stop-color="#1087a7" stop-opacity="1"></stop><stop offset="80%" stop-color="#02b5d4" stop-opacity="1"></stop></linearGradient></defs><defs><linearGradient id="grad1_3" x1="33.3%" y1="0%" x2="100%" y2="100%"><stop offset="20%" stop-color="#1087a7" stop-opacity="1"></stop><stop offset="80%" stop-color="#135c79" stop-opacity="1"></stop></linearGradient></defs><defs><linearGradient id="grad1_4" x1="33.3%" y1="0%" x2="100%" y2="100%"><stop offset="20%" stop-color="#0d354b" stop-opacity="1"></stop><stop offset="80%" stop-color="#135c79" stop-opacity="1"></stop></linearGradient></defs><defs><linearGradient id="grad1_5" x1="33.3%" y1="0%" x2="100%" y2="100%"><stop offset="20%" stop-color="#0d354b" stop-opacity="1"></stop><stop offset="80%" stop-color="#001220" stop-opacity="1"></stop></linearGradient></defs><defs><linearGradient id="grad2_0" x1="0%" y1="0%" x2="66.7%" y2="100%"><stop offset="20%" stop-color="#00e5ff" stop-opacity="1"></stop><stop offset="80%" stop-color="#00e5ff" stop-opacity="1"></stop></linearGradient></defs><defs><linearGradient id="grad2_1" x1="0%" y1="0%" x2="66.7%" y2="100%"><stop offset="20%" stop-color="#02b5d4" stop-opacity="1"></stop><stop offset="80%" stop-color="#00e5ff" stop-opacity="1"></stop></linearGradient></defs><defs><linearGradient id="grad2_2" x1="0%" y1="0%" x2="66.7%" y2="100%"><stop offset="20%" stop-color="#02b5d4" stop-opacity="1"></stop><stop offset="80%" stop-color="#1087a7" stop-opacity="1"></stop></linearGradient></defs><defs><linearGradient id="grad2_3" x1="0%" y1="0%" x2="66.7%" y2="100%"><stop offset="20%" stop-color="#135c79" stop-opacity="1"></stop><stop offset="80%" stop-color="#1087a7" stop-opacity="1"></stop></linearGradient></defs><defs><linearGradient id="grad2_4" x1="0%" y1="0%" x2="66.7%" y2="100%"><stop offset="20%" stop-color="#135c79" stop-opacity="1"></stop><stop offset="80%" stop-color="#0d354b" stop-opacity="1"></stop></linearGradient></defs><defs><linearGradient id="grad2_5" x1="0%" y1="0%" x2="66.7%" y2="100%"><stop offset="20%" stop-color="#001220" stop-opacity="1"></stop><stop offset="80%" stop-color="#0d354b" stop-opacity="1"></stop></linearGradient></defs><g transform="translate(900, 0)"><path d="M0 189.3C-33.4 184.5 -66.9 179.8 -94.6 163.9C-122.4 148.1 -144.5 121.2 -159.3 92C-174.2 62.8 -181.7 31.4 -189.3 0L0 0Z" fill="#082335"></path><path d="M0 157.7C-27.9 153.8 -55.7 149.8 -78.9 136.6C-102 123.4 -120.4 101 -132.8 76.7C-145.1 52.4 -151.4 26.2 -157.7 0L0 0Z" fill="#114862"></path><path d="M0 126.2C-22.3 123 -44.6 119.8 -63.1 109.3C-81.6 98.7 -96.3 80.8 -106.2 61.3C-116.1 41.9 -121.2 20.9 -126.2 0L0 0Z" fill="#137190"></path><path d="M0 94.6C-16.7 92.3 -33.4 89.9 -47.3 82C-61.2 74 -72.3 60.6 -79.7 46C-87.1 31.4 -90.9 15.7 -94.6 0L0 0Z" fill="#0a9ebe"></path><path d="M0 63.1C-11.1 61.5 -22.3 59.9 -31.5 54.6C-40.8 49.4 -48.2 40.4 -53.1 30.7C-58.1 20.9 -60.6 10.5 -63.1 0L0 0Z" fill="#00cdea"></path><path d="M0 31.5C-5.6 30.8 -11.1 30 -15.8 27.3C-20.4 24.7 -24.1 20.2 -26.6 15.3C-29 10.5 -30.3 5.2 -31.5 0L0 0Z" fill="#00e5ff"></path></g><g transform="translate(0, 600)"><path d="M0 -189.3C31.9 -182.7 63.9 -176 93 -161.1C122.1 -146.1 148.4 -122.9 163.9 -94.6C179.5 -66.4 184.4 -33.2 189.3 0L0 0Z" fill="#082335"></path><path d="M0 -157.7C26.6 -152.2 53.2 -146.7 77.5 -134.2C101.8 -121.8 123.6 -102.4 136.6 -78.9C149.6 -55.3 153.7 -27.7 157.7 0L0 0Z" fill="#114862"></path><path d="M0 -126.2C21.3 -121.8 42.6 -117.4 62 -107.4C81.4 -97.4 98.9 -81.9 109.3 -63.1C119.7 -44.3 122.9 -22.1 126.2 0L0 0Z" fill="#137190"></path><path d="M0 -94.6C16 -91.3 31.9 -88 46.5 -80.5C61.1 -73.1 74.2 -61.4 82 -47.3C89.8 -33.2 92.2 -16.6 94.6 0L0 0Z" fill="#0a9ebe"></path><path d="M0 -63.1C10.6 -60.9 21.3 -58.7 31 -53.7C40.7 -48.7 49.5 -41 54.6 -31.5C59.8 -22.1 61.5 -11.1 63.1 0L0 0Z" fill="#00cdea"></path><path d="M0 -31.5C5.3 -30.4 10.6 -29.3 15.5 -26.8C20.4 -24.4 24.7 -20.5 27.3 -15.8C29.9 -11.1 30.7 -5.5 31.5 0L0 0Z" fill="#00e5ff"></path></g></svg>