<svg id="visual" viewBox="0 0 900 600" width="900" height="600" xmlns="http://www.w3.org/2000/svg" xmlns:xlink="http://www.w3.org/1999/xlink" version="1.1"><rect x="0" y="0" width="900" height="600" fill="#001220"></rect><defs><linearGradient id="grad1_0" x1="33.3%" y1="0%" x2="100%" y2="100%"><stop offset="20%" stop-color="#001220" stop-opacity="1"></stop><stop offset="80%" stop-color="#001220" stop-opacity="1"></stop></linearGradient></defs><defs><linearGradient id="grad2_0" x1="0%" y1="0%" x2="66.7%" y2="100%"><stop offset="20%" stop-color="#001220" stop-opacity="1"></stop><stop offset="80%" stop-color="#001220" stop-opacity="1"></stop></linearGradient></defs><g transform="translate(900, 0)"><path d="M0 189.3C-33.8 184.7 -67.6 180.2 -94.6 163.9C-121.7 147.7 -142.1 119.8 -156.8 90.5C-171.4 61.2 -180.3 30.6 -189.3 0L0 0Z" fill="#00e5ff"></path></g><g transform="translate(0, 600)"><path d="M0 -189.3C33.7 -184.7 67.3 -180 94.6 -163.9C122 -147.8 142.9 -120.2 157.6 -91C172.3 -61.8 180.8 -30.9 189.3 0L0 0Z" fill="#00e5ff"></path></g></svg>